<svg width="19" height="15" viewBox="0 0 19 15" fill="none" xmlns="http://www.w3.org/2000/svg">
<path d="M18.3633 5.58984L15.875 1.21484C15.7109 0.941406 15.4375 0.75 15.1094 0.75H4.36328C4.0625 0.75 3.76172 0.941406 3.59766 1.21484L1.10938 5.58984C0.78125 6.16406 1.19141 6.875 1.875 6.875H2.75V13.793C2.75 14.3398 3.13281 14.75 3.625 14.75H10.625C11.0898 14.75 11.5 14.3398 11.5 13.793V6.875H15.4375V14.3125C15.4375 14.5586 15.6289 14.75 15.875 14.75H16.3125C16.5312 14.75 16.75 14.5586 16.75 14.3125V6.875H17.625C18.2812 6.875 18.6914 6.16406 18.3633 5.58984ZM10.1875 13.4375H4.0625V10.8398H10.1875V13.4375ZM10.1875 9.52734H4.0625V6.875H10.1875V9.52734ZM2.61328 5.5625L4.60938 2.0625H14.8633L16.8594 5.5625H2.61328Z" fill="#FFC300"/>
</svg>
