<svg width="40" height="31" viewBox="0 0 40 31" fill="none" xmlns="http://www.w3.org/2000/svg">
<path d="M26.2897 2.21142C29.4414 2.21142 32 15.0991 32 31H36.5724C36.5724 13.8765 31.9655 0 26.2897 0C23.0552 0 20.1724 4.16897 18.2897 10.6963C16.4 4.16897 13.5172 0 10.2828 0C4.6069 0 0 13.8765 0 31H4.57241C4.57241 15.1058 7.13104 2.2181 10.2828 2.2181C13.4414 2.2181 16 14.117 16 28.7886H20.5724C20.5724 14.1103 23.131 2.21142 26.2897 2.21142Z" fill="#FFC300"/>
<path d="M38.8619 28.7819C39.4826 28.7819 39.9999 29.2562 39.9999 29.8842C39.9999 30.5189 39.4826 30.9933 38.8619 30.9933C38.2412 30.9933 37.7171 30.5189 37.7171 29.8842C37.7102 29.2629 38.2343 28.7819 38.8619 28.7819ZM38.8619 30.8396C39.3861 30.8396 39.793 30.4321 39.793 29.8909C39.793 29.3564 39.3861 28.9489 38.8619 28.9489C38.3309 28.9489 37.924 29.3564 37.924 29.8909C37.924 30.4254 38.3309 30.8396 38.8619 30.8396ZM38.4137 29.2429H38.9309C39.2481 29.2429 39.393 29.3631 39.393 29.6103C39.393 29.8441 39.2412 29.9444 39.0481 29.9644L39.4274 30.539H39.2068L38.8481 29.9844H38.6206V30.539H38.4137V29.2429ZM38.6206 29.8174H38.8343C39.0137 29.8174 39.1861 29.8107 39.1861 29.6036C39.1861 29.4299 39.0343 29.4032 38.8964 29.4032H38.6206V29.8174Z" fill="#FFC300"/>
</svg>
