<svg width="18" height="12" viewBox="0 0 18 12" fill="none" xmlns="http://www.w3.org/2000/svg">
<path d="M16.4688 5H15V3.5C15 2.6875 14.3125 2 13.5 2H8.5L6.5 0H1.5C0.65625 0 0 0.6875 0 1.5V10.5C0 11.3438 0.65625 12 1.5 12H14C14.5 12 14.9688 11.75 15.25 11.3125L17.75 7.3125C18.375 6.3125 17.6562 5 16.4688 5ZM1.5 1.6875C1.5 1.59375 1.5625 1.5 1.6875 1.5H5.875L7.875 3.5H13.3125C13.4062 3.5 13.5 3.59375 13.5 3.6875V5H4.75C4.21875 5 3.71875 5.28125 3.4375 5.75L1.5 9V1.6875ZM14 10.5H2.25L4.65625 6.5H16.5L14 10.5Z" fill="#333333"/>
</svg>
