<svg width="16" height="16" viewBox="0 0 16 16" fill="none" xmlns="http://www.w3.org/2000/svg">
<path d="M15.625 0.25H14.75C14.5312 0.25 14.375 0.4375 14.375 0.65625L14.4375 3.71875C13.0625 1.65625 10.6875 0.25 8 0.25C4.1875 0.25 1.03125 2.96875 0.375 6.5625C0.3125 6.8125 0.5 7 0.75 7H1.625C1.8125 7 1.96875 6.90625 2 6.71875C2.59375 3.96875 5.03125 1.875 8 1.875C10.4688 1.875 12.5938 3.375 13.5625 5.5L9.625 5.40625C9.40625 5.40625 9.25 5.5625 9.25 5.78125V6.625C9.25 6.84375 9.40625 7 9.625 7H15.625C15.8125 7 16 6.84375 16 6.625V0.625C16 0.4375 15.8125 0.25 15.625 0.25ZM15.2188 9H14.3438C14.1562 9 14 9.125 13.9688 9.3125C13.375 12.0625 10.9375 14.125 8 14.125C5.5 14.125 3.375 12.6562 2.40625 10.5312L6.34375 10.625C6.5625 10.625 6.75 10.4688 6.75 10.25V9.375C6.75 9.1875 6.5625 9 6.375 9H0.375C0.15625 9 0 9.1875 0 9.375V15.375C0 15.5938 0.15625 15.75 0.375 15.75H1.21875C1.4375 15.75 1.59375 15.5938 1.59375 15.375L1.53125 12.3125C2.90625 14.375 5.28125 15.75 8 15.75C11.7812 15.75 14.9375 13.0625 15.5938 9.46875C15.6562 9.21875 15.4688 9 15.2188 9Z" fill="#DB0007"/>
</svg>
