<svg width="21" height="22" viewBox="0 0 21 22" fill="none" xmlns="http://www.w3.org/2000/svg">
<path d="M10.1719 0.953125C4.55273 0.953125 0 5.50586 0 11.125C0 16.7441 4.55273 21.2969 10.1719 21.2969C15.791 21.2969 20.3438 16.7441 20.3438 11.125C20.3438 5.50586 15.791 0.953125 10.1719 0.953125ZM10.1719 4.89062C12.1406 4.89062 13.7812 6.53125 13.7812 8.5C13.7812 10.5098 12.1406 12.1094 10.1719 12.1094C8.16211 12.1094 6.5625 10.5098 6.5625 8.5C6.5625 6.53125 8.16211 4.89062 10.1719 4.89062ZM10.1719 19C7.75195 19 5.57812 17.9336 4.14258 16.2109C4.92188 14.7754 6.43945 13.75 8.20312 13.75C8.28516 13.75 8.36719 13.791 8.49023 13.832C9.02344 13.9961 9.55664 14.0781 10.1719 14.0781C10.7461 14.0781 11.3203 13.9961 11.8125 13.832C11.9355 13.791 12.0176 13.75 12.1406 13.75C13.8633 13.75 15.3809 14.7754 16.1602 16.2109C14.7246 17.9336 12.5508 19 10.1719 19Z" fill="#333333"/>
</svg>
