<svg width="14" height="11" viewBox="0 0 14 11" fill="none" xmlns="http://www.w3.org/2000/svg">
<path d="M5.23828 9.60547C5.6875 9.60547 6.03906 9.52734 6.35156 9.44922C6.56641 9.41016 6.70312 9.21484 6.70312 9V8.375C6.89844 8.29688 7.07422 8.19922 7.23047 8.08203L7.75781 8.375C7.93359 8.49219 8.1875 8.45312 8.32422 8.29688C8.87109 7.73047 9.28125 7.125 9.4375 6.32422C9.47656 6.14844 9.39844 5.95312 9.22266 5.83594L8.71484 5.52344C8.73438 5.30859 8.73438 5.11328 8.71484 4.91797L9.22266 4.58594C9.39844 4.48828 9.47656 4.29297 9.4375 4.09766C9.28125 3.27734 8.83203 2.69141 8.32422 2.14453C8.1875 1.98828 7.93359 1.94922 7.75781 2.04688L7.23047 2.35938C7.07422 2.24219 6.89844 2.14453 6.70312 2.04688V1.46094C6.70312 1.24609 6.56641 1.05078 6.35156 1.01172C5.47266 0.796875 4.98438 0.796875 4.10547 1.01172C3.91016 1.05078 3.75391 1.24609 3.75391 1.46094V2.04688C3.57812 2.125 3.40234 2.24219 3.22656 2.35938L2.69922 2.04688C2.52344 1.94922 2.28906 1.96875 2.13281 2.14453C1.44922 2.86719 1.27344 3.27734 1.01953 4.05859C0.941406 4.27344 1.03906 4.50781 1.23438 4.60547L1.76172 4.91797C1.74219 5.11328 1.74219 5.30859 1.76172 5.52344L1.23438 5.81641C1.03906 5.91406 0.941406 6.14844 1.01953 6.36328C1.27344 7.14453 1.44922 7.55469 2.13281 8.29688C2.28906 8.45312 2.52344 8.47266 2.69922 8.375L3.22656 8.0625C3.40234 8.17969 3.57812 8.29688 3.75391 8.375V9C3.75391 9.21484 3.91016 9.39062 4.10547 9.44922C4.41797 9.52734 4.76953 9.60547 5.23828 9.60547ZM4.69141 8.60938V7.73047L4.37891 7.61328C4.08594 7.51562 3.8125 7.35938 3.57812 7.16406L3.32422 6.94922L2.5625 7.37891C2.32812 7.10547 2.15234 6.77344 2.01562 6.44141L2.77734 6.01172L2.71875 5.67969C2.66016 5.36719 2.66016 5.05469 2.71875 4.74219L2.77734 4.42969L2.01562 3.98047C2.15234 3.64844 2.32812 3.33594 2.5625 3.04297L3.32422 3.49219L3.57812 3.27734C3.8125 3.0625 4.08594 2.90625 4.37891 2.80859L4.69141 2.69141V1.8125C5.04297 1.77344 5.41406 1.77344 5.76562 1.8125V2.69141L6.07812 2.80859C6.37109 2.90625 6.64453 3.0625 6.87891 3.27734L7.13281 3.49219L7.89453 3.04297C8.12891 3.33594 8.30469 3.64844 8.44141 3.98047L7.67969 4.41016L7.73828 4.74219C7.79688 5.05469 7.79688 5.36719 7.73828 5.67969L7.67969 6.01172L8.44141 6.44141C8.30469 6.77344 8.12891 7.08594 7.89453 7.37891L7.13281 6.92969L6.87891 7.14453C6.64453 7.35938 6.37109 7.51562 6.07812 7.61328L5.76562 7.73047V8.60938C5.41406 8.66797 5.04297 8.66797 4.69141 8.60938ZM5.21875 6.94922C5.66797 6.94922 6.09766 6.77344 6.44922 6.44141C7.11328 5.77734 7.11328 4.68359 6.44922 4C5.76562 3.33594 4.67188 3.33594 4.00781 4C3.32422 4.68359 3.32422 5.77734 4.00781 6.44141C4.33984 6.77344 4.78906 6.94922 5.21875 6.94922ZM5.21875 4.42969C5.41406 4.42969 5.62891 4.50781 5.78516 4.66406C6.07812 4.97656 6.07812 5.46484 5.78516 5.77734C5.47266 6.08984 4.96484 6.08984 4.67188 5.77734C4.35938 5.46484 4.35938 4.97656 4.67188 4.66406C4.82812 4.50781 5.02344 4.42969 5.21875 4.42969ZM13.4609 1.91016C13.4414 1.8125 13.3438 1.71484 13.2266 1.71484H12.9141C12.8555 1.53906 12.7383 1.34375 12.6211 1.20703L12.7773 0.933594C12.8164 0.835938 12.7969 0.699219 12.7188 0.621094C12.543 0.484375 12.3281 0.367188 12.1133 0.269531C11.9961 0.230469 11.8789 0.269531 11.8203 0.386719L11.6641 0.640625C11.4688 0.621094 11.2539 0.621094 11.0586 0.640625L10.9023 0.386719C10.8438 0.269531 10.7266 0.230469 10.6094 0.269531C10.3945 0.367188 10.1797 0.484375 10.0039 0.621094C9.90625 0.699219 9.88672 0.835938 9.94531 0.933594L10.1016 1.20703C9.96484 1.34375 9.86719 1.53906 9.80859 1.71484H9.49609C9.37891 1.71484 9.28125 1.8125 9.26172 1.92969C9.22266 2.16406 9.22266 2.39844 9.26172 2.63281C9.28125 2.75 9.37891 2.82812 9.49609 2.82812H9.80859C9.86719 3.02344 9.96484 3.19922 10.1016 3.35547L9.94531 3.62891C9.88672 3.72656 9.90625 3.84375 10.0039 3.92188C10.1797 4.07812 10.3945 4.19531 10.6094 4.27344C10.7266 4.3125 10.8438 4.27344 10.9023 4.17578L11.0586 3.90234C11.2539 3.94141 11.4688 3.94141 11.6641 3.90234L11.8203 4.17578C11.8789 4.27344 11.9961 4.3125 12.1133 4.27344C12.3281 4.19531 12.543 4.07812 12.7188 3.92188C12.7969 3.84375 12.8359 3.72656 12.7773 3.62891L12.6211 3.35547C12.7383 3.19922 12.8555 3.02344 12.9141 2.82812H13.2266C13.3438 2.82812 13.4414 2.75 13.4609 2.63281C13.5 2.37891 13.5 2.14453 13.4609 1.91016ZM11.3516 2.90625C11.0195 2.90625 10.7266 2.61328 10.7266 2.28125C10.7266 1.92969 11.0195 1.65625 11.3516 1.65625C11.7031 1.65625 11.9766 1.92969 11.9766 2.28125C11.9766 2.61328 11.7031 2.90625 11.3516 2.90625ZM13.4609 7.88672C13.4414 7.76953 13.3438 7.69141 13.2266 7.69141H12.9141C12.8555 7.49609 12.7383 7.32031 12.6211 7.16406L12.7773 6.89062C12.8164 6.79297 12.7969 6.67578 12.7188 6.59766C12.543 6.44141 12.3281 6.32422 12.0938 6.24609C11.9961 6.20703 11.8789 6.24609 11.8203 6.34375L11.6641 6.61719C11.4688 6.57812 11.2539 6.57812 11.0586 6.61719L10.9023 6.34375C10.8438 6.24609 10.7266 6.20703 10.6094 6.24609C10.3945 6.32422 10.1797 6.44141 10.0039 6.59766C9.90625 6.67578 9.88672 6.79297 9.94531 6.89062L10.1016 7.16406C9.96484 7.32031 9.86719 7.49609 9.80859 7.69141H9.47656C9.37891 7.69141 9.26172 7.76953 9.26172 7.88672C9.22266 8.12109 9.22266 8.375 9.26172 8.58984C9.28125 8.70703 9.37891 8.78516 9.47656 8.78516H9.80859C9.86719 8.98047 9.96484 9.15625 10.1016 9.3125L9.94531 9.58594C9.88672 9.68359 9.90625 9.82031 10.0039 9.87891C10.1797 10.0352 10.3945 10.1523 10.6094 10.25C10.7266 10.2891 10.8438 10.25 10.9023 10.1328L11.0586 9.85938C11.2539 9.89844 11.4688 9.89844 11.6641 9.85938L11.8203 10.1328C11.8789 10.2305 11.9961 10.2891 12.0938 10.25C12.3281 10.1523 12.543 10.0352 12.7188 9.87891C12.7969 9.82031 12.8359 9.68359 12.7773 9.58594L12.6211 9.3125C12.7383 9.15625 12.8555 8.98047 12.9141 8.78516H13.2266C13.3438 8.78516 13.4414 8.70703 13.4609 8.58984C13.5 8.35547 13.5 8.12109 13.4609 7.88672ZM11.3516 8.86328C11.0195 8.86328 10.7266 8.58984 10.7266 8.23828C10.7266 7.90625 11.0195 7.61328 11.3516 7.61328C11.7031 7.61328 11.9766 7.90625 11.9766 8.23828C11.9766 8.58984 11.7031 8.86328 11.3516 8.86328Z" fill="#FFC300"/>
</svg>
