<svg width="10" height="11" viewBox="0 0 10 11" fill="none" xmlns="http://www.w3.org/2000/svg">
<path d="M9.84375 5.25C9.84375 2.59375 7.65625 0.40625 5 0.40625C2.32422 0.40625 0.15625 2.59375 0.15625 5.25C0.15625 7.92578 2.32422 10.0938 5 10.0938C7.65625 10.0938 9.84375 7.92578 9.84375 5.25ZM4.43359 7.82812C4.31641 7.94531 4.10156 7.94531 3.98438 7.82812L1.95312 5.79688C1.83594 5.67969 1.83594 5.46484 1.95312 5.34766L2.40234 4.91797C2.51953 4.78125 2.71484 4.78125 2.83203 4.91797L4.21875 6.28516L7.14844 3.35547C7.26562 3.21875 7.46094 3.21875 7.57812 3.35547L8.02734 3.78516C8.14453 3.90234 8.14453 4.11719 8.02734 4.23438L4.43359 7.82812Z" fill="white"/>
</svg>
