<svg width="13" height="11" viewBox="0 0 13 11" fill="none" xmlns="http://www.w3.org/2000/svg">
<path d="M12.1133 8.86328L7.42578 0.71875C7.07422 0.113281 6.15625 0.09375 5.80469 0.71875L1.11719 8.86328C0.765625 9.46875 1.21484 10.25 1.9375 10.25H11.293C12.0156 10.25 12.4648 9.48828 12.1133 8.86328ZM6.625 7.16406C7.11328 7.16406 7.52344 7.57422 7.52344 8.0625C7.52344 8.57031 7.11328 8.96094 6.625 8.96094C6.11719 8.96094 5.72656 8.57031 5.72656 8.0625C5.72656 7.57422 6.11719 7.16406 6.625 7.16406ZM5.76562 3.94141C5.74609 3.80469 5.86328 3.6875 6 3.6875H7.23047C7.36719 3.6875 7.48438 3.80469 7.46484 3.94141L7.32812 6.59766C7.30859 6.73438 7.21094 6.8125 7.09375 6.8125H6.13672C6.01953 6.8125 5.92188 6.73438 5.90234 6.59766L5.76562 3.94141Z" fill="white"/>
</svg>
