<svg width="16" height="14" viewBox="0 0 16 14" fill="none" xmlns="http://www.w3.org/2000/svg">
<path opacity="0.5" d="M14.5 0H1.5C0.65625 0 0 0.6875 0 1.5V4C0 4.28125 0.21875 4.5 0.5 4.5H1V13C1 13.5625 1.4375 14 2 14H14C14.5312 14 15 13.5625 15 13V4.5H15.5C15.75 4.5 16 4.28125 16 4V1.5C16 0.6875 15.3125 0 14.5 0ZM13.5 12.5H2.5V4.5H13.5V12.5ZM14.5 3H1.5V1.5H14.5V3ZM6.375 7.5H9.625C9.8125 7.5 10 7.34375 10 7.125V6.375C10 6.1875 9.8125 6 9.625 6H6.375C6.15625 6 6 6.1875 6 6.375V7.125C6 7.34375 6.15625 7.5 6.375 7.5Z" fill="#333333"/>
</svg>
