<svg width="20" height="16" viewBox="0 0 20 16" fill="none" xmlns="http://www.w3.org/2000/svg">
<path d="M8 10.5H7.96875C7.96875 10 8.03125 10.25 5.3125 4.84375C5.0625 4.28125 4.53125 4 3.96875 4C3.4375 4 2.90625 4.28125 2.65625 4.84375C-0.09375 10.2812 0 10.0312 0 10.5C0 11.9062 1.78125 13 4 13C6.1875 13 8 11.9062 8 10.5ZM2.59375 8.3125C2.9375 7.59375 3.40625 6.6875 3.96875 5.53125V5.5H4C4.59375 6.75 5.09375 7.6875 5.4375 8.40625C5.78125 9.125 6.0625 9.65625 6.25 10H1.71875C1.9375 9.625 2.21875 9.0625 2.59375 8.3125ZM16.5 14.5H10.75V4.875C11.5938 4.625 12.25 3.90625 12.4375 3H16.5C16.75 3 17 2.78125 17 2.5V2C17 1.75 16.75 1.5 16.5 1.5H12.2812C11.875 0.625 11 0 10 0C8.96875 0 8.09375 0.625 7.6875 1.5H3.5C3.21875 1.5 3 1.75 3 2V2.5C3 2.78125 3.21875 3 3.5 3H7.53125C7.71875 3.90625 8.375 4.625 9.25 4.875V14.5H3.5C3.21875 14.5 3 14.75 3 15V15.5C3 15.7812 3.21875 16 3.5 16H16.5C16.75 16 17 15.7812 17 15.5V15C17 14.75 16.75 14.5 16.5 14.5ZM10 3.5C9.4375 3.5 9 3.0625 9 2.5C9 1.96875 9.4375 1.5 10 1.5C10.5312 1.5 11 1.96875 11 2.5C11 3.0625 10.5312 3.5 10 3.5ZM19.9688 10.5C19.9688 10 20.0312 10.25 17.3125 4.84375C17.0625 4.28125 16.5312 4 15.9688 4C15.4375 4 14.9062 4.28125 14.6562 4.84375C11.9062 10.2812 12 10.0312 12 10.5C12 11.9062 13.7812 13 16 13C18.1875 13 20 11.9062 20 10.5H19.9688ZM13.7188 10C13.9375 9.625 14.2188 9.0625 14.5938 8.3125C14.9375 7.59375 15.4062 6.6875 15.9688 5.53125V5.5H16C16.5938 6.75 17.0938 7.6875 17.4375 8.40625C17.7812 9.125 18.0625 9.65625 18.25 10H13.7188Z" fill="#A9C23F"/>
</svg>
