<svg width="16" height="12" viewBox="0 0 16 12" fill="none" xmlns="http://www.w3.org/2000/svg">
<path d="M3.65625 6.6875C3.84375 6.875 4.1875 6.875 4.375 6.6875L6 5.0625L8.625 7.71875C8.8125 7.90625 9.15625 7.90625 9.34375 7.71875L12.7812 4.28125L13.7188 5.1875C14.1875 5.6875 15 5.34375 15 4.65625V1.5C15 1.25 14.75 1 14.5 1H11.3438C10.6562 1 10.3125 1.8125 10.8125 2.28125L11.7188 3.21875L9 5.96875L6.34375 3.3125C6.15625 3.125 5.8125 3.125 5.625 3.3125L3.3125 5.625C3.125 5.8125 3.125 6.15625 3.3125 6.34375L3.65625 6.6875ZM15.5 10.5H1.5V0.5C1.5 0.25 1.25 0 1 0H0.5C0.21875 0 0 0.25 0 0.5V11C0 11.5625 0.4375 12 1 12H15.5C15.75 12 16 11.7812 16 11.5V11C16 10.75 15.75 10.5 15.5 10.5Z" fill="#F9F9F9"/>
</svg>
