<svg width="16" height="16" viewBox="0 0 16 16" fill="none" xmlns="http://www.w3.org/2000/svg">
<path d="M16 8.03125C16 7.625 15.75 7.25 15.375 7.09375L12.9062 6L15.375 4.9375C15.75 4.78125 16 4.40625 16 4C16 3.625 15.75 3.25 15.375 3.09375L8.5625 0.125C8.1875 -0.03125 7.78125 -0.03125 7.40625 0.125L0.59375 3.09375C0.21875 3.25 0 3.625 0 4C0 4.40625 0.21875 4.78125 0.59375 4.9375L3.0625 6L0.59375 7.09375C0.21875 7.25 0 7.625 0 8.03125C0 8.40625 0.21875 8.78125 0.59375 8.9375L3.0625 10L0.59375 11.0938C0.21875 11.25 0 11.625 0 12.0312C0 12.4062 0.21875 12.7812 0.59375 12.9375L7.40625 15.9062C7.59375 15.9688 7.78125 16 7.96875 16C8.1875 16 8.375 15.9688 8.5625 15.9062L15.375 12.9375C15.75 12.7812 15.9688 12.4062 15.9688 12.0312C15.9688 11.625 15.75 11.25 15.375 11.0938L12.9062 10L15.375 8.9375C15.75 8.78125 16 8.40625 16 8.03125ZM8 1.53125L13.75 4.03125L8 6.53125L2.21875 4L8 1.53125ZM13.75 12.0312L8 14.5312L2.21875 12L4.96875 10.8438L7.40625 11.9062C7.59375 11.9688 7.78125 12 8 12C8.1875 12 8.375 11.9688 8.5625 11.9062L11 10.8438L13.75 12.0312ZM8 10.5312L2.21875 8L4.96875 6.84375L7.40625 7.90625C7.59375 7.96875 7.78125 8 8 8C8.1875 8 8.375 7.96875 8.5625 7.90625L11 6.84375L13.75 8.03125L8 10.5312Z" fill="#333333"/>
</svg>
