<svg width="10" height="11" viewBox="0 0 10 11" fill="none" xmlns="http://www.w3.org/2000/svg">
<path d="M5.9375 1.1875C5.9375 0.679688 5.50781 0.25 5 0.25C4.47266 0.25 4.0625 0.679688 4.0625 1.1875C4.0625 1.71484 4.47266 2.125 5 2.125C5.50781 2.125 5.9375 1.71484 5.9375 1.1875ZM5 8.375C4.47266 8.375 4.0625 8.80469 4.0625 9.3125C4.0625 9.83984 4.47266 10.25 5 10.25C5.50781 10.25 5.9375 9.83984 5.9375 9.3125C5.9375 8.80469 5.50781 8.375 5 8.375ZM9.0625 4.3125C8.53516 4.3125 8.125 4.74219 8.125 5.25C8.125 5.77734 8.53516 6.1875 9.0625 6.1875C9.57031 6.1875 10 5.77734 10 5.25C10 4.74219 9.57031 4.3125 9.0625 4.3125ZM1.875 5.25C1.875 4.74219 1.44531 4.3125 0.9375 4.3125C0.410156 4.3125 0 4.74219 0 5.25C0 5.77734 0.410156 6.1875 0.9375 6.1875C1.44531 6.1875 1.875 5.77734 1.875 5.25ZM2.10938 7.20312C1.60156 7.20312 1.17188 7.61328 1.17188 8.14062C1.17188 8.64844 1.60156 9.07812 2.10938 9.07812C2.63672 9.07812 3.04688 8.64844 3.04688 8.14062C3.04688 7.61328 2.63672 7.20312 2.10938 7.20312ZM7.87109 7.20312C7.34375 7.20312 6.93359 7.61328 6.93359 8.14062C6.93359 8.64844 7.34375 9.07812 7.87109 9.07812C8.37891 9.07812 8.80859 8.64844 8.80859 8.14062C8.80859 7.61328 8.37891 7.20312 7.87109 7.20312ZM2.10938 1.44141C1.60156 1.44141 1.17188 1.87109 1.17188 2.37891C1.17188 2.90625 1.60156 3.31641 2.10938 3.31641C2.63672 3.31641 3.04688 2.90625 3.04688 2.37891C3.04688 1.87109 2.63672 1.44141 2.10938 1.44141Z" fill="#A9C23F"/>
</svg>
