<svg width="12" height="16" viewBox="0 0 12 16" fill="none" xmlns="http://www.w3.org/2000/svg">
<path d="M11.5312 3.0625L8.9375 0.4375C8.65625 0.15625 8.25 0 7.875 0H1.5C0.65625 0 0 0.6875 0 1.5V14.5C0 15.3438 0.65625 16 1.5 16H10.5C11.3125 16 12 15.3438 12 14.5V4.125C12 3.75 11.8125 3.34375 11.5312 3.0625ZM10.375 4H8V1.625L10.375 4ZM1.5 14.5V1.5H6.5V4.75C6.5 5.1875 6.8125 5.5 7.25 5.5H10.5V14.5H1.5ZM9.3125 10.0312C8.9375 9.65625 7.84375 9.75 7.28125 9.8125C6.75 9.5 6.40625 9.03125 6.15625 8.375C6.25 7.875 6.46875 7.09375 6.3125 6.625C6.1875 5.8125 5.125 5.875 4.96875 6.4375C4.84375 6.9375 4.96875 7.65625 5.1875 8.53125C4.875 9.28125 4.40625 10.2812 4.09375 10.875C3.46875 11.1875 2.625 11.6875 2.5 12.3125C2.40625 12.8125 3.3125 14.0312 4.875 11.3438C5.5625 11.0938 6.34375 10.8125 7 10.6875C7.59375 11.0312 8.28125 11.2188 8.75 11.2188C9.5625 11.2188 9.625 10.3438 9.3125 10.0312ZM3.125 12.4688C3.28125 12.0312 3.875 11.5312 4.0625 11.375C3.46875 12.3125 3.125 12.4688 3.125 12.4688ZM5.65625 6.5C5.90625 6.5 5.875 7.5 5.71875 7.78125C5.59375 7.34375 5.59375 6.5 5.65625 6.5ZM4.90625 10.7812C5.21875 10.25 5.46875 9.625 5.6875 9.0625C5.9375 9.53125 6.25 9.90625 6.625 10.1562C5.96875 10.3125 5.40625 10.5625 4.90625 10.7812ZM9 10.625C9 10.625 8.84375 10.8125 7.84375 10.375C8.9375 10.2812 9.125 10.5312 9 10.625Z" fill="#333333"/>
</svg>
