<svg width="17" height="16" viewBox="0 0 17 16" fill="none" xmlns="http://www.w3.org/2000/svg">
<path d="M10 16C10.6875 16 11.2188 15.4688 11.25 14.75V11.875L14.0625 13.3438C14.6875 13.6875 15.4375 13.4688 15.7812 12.875L16.8125 11.1562C16.9688 10.875 17.0312 10.5312 16.9375 10.1875C16.8438 9.875 16.6562 9.59375 16.3438 9.4375L13.8125 8L16.3438 6.59375C16.6562 6.4375 16.8438 6.15625 16.9375 5.84375C17.0312 5.5 16.9688 5.15625 16.8125 4.875L15.7812 3.15625C15.4375 2.5625 14.6875 2.34375 14.0625 2.6875L11.25 4.15625V1.25C11.25 0.5625 10.6875 0 10 0H8C7.28125 0 6.75 0.5625 6.75 1.25V4.15625L3.90625 2.6875C3.28125 2.34375 2.53125 2.5625 2.1875 3.15625L1.15625 4.875C1 5.15625 0.9375 5.5 1.03125 5.84375C1.125 6.15625 1.3125 6.4375 1.625 6.59375L4.15625 8L1.625 9.4375C1.3125 9.59375 1.125 9.875 1.03125 10.1875C0.9375 10.5312 1 10.875 1.15625 11.1562L2.1875 12.875C2.53125 13.4688 3.3125 13.6875 3.90625 13.3438L6.75 11.875V14.75C6.75 15.4688 7.28125 16 8 16H10ZM8.25 14.5V9.3125L3.34375 11.9375L2.59375 10.625L7.4375 8L2.59375 5.40625L3.34375 4.09375L8.25 6.71875V1.5H9.75V6.71875L14.625 4.09375L15.375 5.40625L10.5312 8L15.375 10.625L14.625 11.9375L9.75 9.3125V14.5H8.25Z" fill="#F9F9F9"/>
</svg>
