<svg width="10" height="11" viewBox="0 0 10 11" fill="none" xmlns="http://www.w3.org/2000/svg">
<path d="M5 0.40625C2.32422 0.40625 0.15625 2.59375 0.15625 5.25C0.15625 7.92578 2.32422 10.0938 5 10.0938C7.65625 10.0938 9.84375 7.92578 9.84375 5.25C9.84375 2.59375 7.65625 0.40625 5 0.40625ZM5 1.34375C7.14844 1.34375 8.90625 3.10156 8.90625 5.25C8.90625 7.41797 7.14844 9.15625 5 9.15625C2.83203 9.15625 1.09375 7.41797 1.09375 5.25C1.09375 3.10156 2.83203 1.34375 5 1.34375ZM7.73438 3.90234L7.28516 3.45312C7.20703 3.35547 7.05078 3.35547 6.95312 3.45312L4.19922 6.1875L3.02734 5.01562C2.92969 4.91797 2.79297 4.91797 2.69531 5.01562L2.24609 5.44531C2.16797 5.54297 2.16797 5.69922 2.24609 5.77734L4.02344 7.57422C4.12109 7.67188 4.25781 7.67188 4.35547 7.57422L7.73438 4.23438C7.8125 4.13672 7.8125 3.98047 7.73438 3.90234Z" fill="#A9C23F"/>
</svg>
