<svg width="12" height="10" viewBox="0 0 12 10" fill="none" xmlns="http://www.w3.org/2000/svg">
<path d="M6.15625 1.4375H7.53125C7.70312 1.4375 7.875 1.28711 7.875 1.09375V0.40625C7.875 0.234375 7.70312 0.0625 7.53125 0.0625H6.15625C5.96289 0.0625 5.8125 0.234375 5.8125 0.40625V1.09375C5.8125 1.28711 5.96289 1.4375 6.15625 1.4375ZM6.15625 4.1875H8.90625C9.07812 4.1875 9.25 4.03711 9.25 3.84375V3.15625C9.25 2.98438 9.07812 2.8125 8.90625 2.8125H6.15625C5.96289 2.8125 5.8125 2.98438 5.8125 3.15625V3.84375C5.8125 4.03711 5.96289 4.1875 6.15625 4.1875ZM11.6562 8.3125H6.15625C5.96289 8.3125 5.8125 8.48438 5.8125 8.65625V9.34375C5.8125 9.53711 5.96289 9.6875 6.15625 9.6875H11.6562C11.8281 9.6875 12 9.53711 12 9.34375V8.65625C12 8.48438 11.8281 8.3125 11.6562 8.3125ZM6.15625 6.9375H10.2812C10.4531 6.9375 10.625 6.78711 10.625 6.59375V5.90625C10.625 5.73438 10.4531 5.5625 10.2812 5.5625H6.15625C5.96289 5.5625 5.8125 5.73438 5.8125 5.90625V6.59375C5.8125 6.78711 5.96289 6.9375 6.15625 6.9375ZM4.78125 6.9375H3.75V0.40625C3.75 0.234375 3.57812 0.0625 3.40625 0.0625H2.71875C2.52539 0.0625 2.375 0.234375 2.375 0.40625V6.9375H1.34375C1.02148 6.9375 0.871094 7.32422 1.08594 7.53906L2.80469 9.60156C2.86914 9.66602 2.95508 9.6875 3.0625 9.6875C3.14844 9.6875 3.23438 9.66602 3.29883 9.60156L5.01758 7.53906C5.23242 7.32422 5.08203 6.9375 4.78125 6.9375Z" fill="#333333"/>
</svg>
