<svg width="18" height="14" viewBox="0 0 18 14" fill="none" xmlns="http://www.w3.org/2000/svg">
<path opacity="0.5" d="M4 8C3.4375 8 3 8.46875 3 9C3 9.5625 3.4375 10 4 10C4.53125 10 5 9.5625 5 9C5 8.46875 4.53125 8 4 8ZM8.8125 4.96875L9.3125 3.46875C9.375 3.34375 9.4375 3.25 9.46875 3.15625C9.34375 3.09375 9.15625 3 9 3C8.4375 3 8 3.46875 8 4C8 4.5 8.34375 4.90625 8.8125 4.96875ZM5.5 4.5C4.9375 4.5 4.5 4.96875 4.5 5.5C4.5 6.0625 4.9375 6.5 5.5 6.5C6.03125 6.5 6.5 6.0625 6.5 5.5C6.5 4.96875 6.03125 4.5 5.5 4.5ZM9 0C4 0 0 4.03125 0 9C0 10.6562 0.4375 12.2188 1.21875 13.5312C1.375 13.8438 1.71875 14 2.0625 14H15.9062C16.25 14 16.5938 13.8438 16.75 13.5312C17.5312 12.2188 18 10.6562 18 9C18 4.03125 13.9688 0 9 0ZM15.625 12.5H2.34375C1.78125 11.4375 1.5 10.25 1.5 9C1.5 4.875 4.84375 1.5 9 1.5C13.125 1.5 16.5 4.875 16.5 9C16.5 10.25 16.1875 11.4375 15.625 12.5ZM13 9C13 9.5625 13.4375 10 14 10C14.5312 10 15 9.5625 15 9C15 8.46875 14.5312 8 14 8C13.4375 8 13 8.46875 13 9ZM11.2188 3.3125C10.8125 3.15625 10.4062 3.375 10.2812 3.78125L8.84375 8.03125C7.8125 8.09375 7 8.96875 7 10C7 10.375 7.09375 10.7188 7.25 11H10.7188C10.875 10.7188 11 10.375 11 10C11 9.40625 10.7188 8.875 10.2812 8.5L11.6875 4.25C11.8125 3.875 11.625 3.4375 11.2188 3.3125ZM13.5 5.5C13.5 5.03125 13.125 4.625 12.6562 4.5625L12.0312 6.40625C12.1875 6.46875 12.3125 6.53125 12.5 6.53125C13.0312 6.5 13.5 6.0625 13.5 5.5Z" fill="#333333"/>
</svg>
