<svg width="19" height="15" viewBox="0 0 19 15" fill="none" xmlns="http://www.w3.org/2000/svg">
<path d="M9.75 11.25H4.5V6.875H2.75V13.875C2.75 14.3672 3.13281 14.75 3.625 14.75H10.625C11.0898 14.75 11.5 14.3672 11.5 13.875V6.875H9.75V11.25ZM18.3359 4.66016L16.0117 1.16016C15.8477 0.914062 15.5742 0.75 15.2734 0.75H4.19922C3.89844 0.75 3.625 0.914062 3.46094 1.16016L1.13672 4.66016C0.753906 5.23438 1.16406 6 1.875 6H17.625C18.3086 6 18.7188 5.23438 18.3359 4.66016ZM15 14.3125C15 14.5586 15.1914 14.75 15.4375 14.75H16.3125C16.5312 14.75 16.75 14.5586 16.75 14.3125V6.875H15V14.3125Z" fill="#FFC300"/>
</svg>
