<svg width="14" height="16" viewBox="0 0 14 16" fill="none" xmlns="http://www.w3.org/2000/svg">
<path opacity="0.5" d="M11.5 0C10.0938 0 9 1.125 9 2.5C9 3.90625 10.0938 5 11.5 5C12.875 5 14 3.90625 14 2.5C14 1.125 12.875 0 11.5 0ZM11.5 3.5C10.9375 3.5 10.5 3.0625 10.5 2.5C10.5 1.96875 10.9375 1.5 11.5 1.5C12.0312 1.5 12.5 1.96875 12.5 2.5C12.5 3.0625 12.0312 3.5 11.5 3.5ZM8 3.5C8 1.59375 6.40625 0 4.5 0C2.5625 0 1 1.59375 1 3.5V8.71875C0.375 9.5 0 10.4375 0 11.5C0 14 2 16 4.5 16C6.96875 16 9 14 9 11.5C9 10.4375 8.59375 9.5 8 8.71875V3.5ZM4.5 14.5C2.84375 14.5 1.5 13.1562 1.5 11.5C1.5 10.6562 1.84375 10.0312 2.15625 9.65625L2.5 9.25V3.5C2.5 2.40625 3.375 1.5 4.5 1.5C5.59375 1.5 6.5 2.40625 6.5 3.5V9.25L6.8125 9.65625C7.125 10.0312 7.5 10.6562 7.5 11.5C7.5 13.1562 6.125 14.5 4.5 14.5ZM5 10.0938V3.5C5 3.25 4.75 3 4.5 3C4.21875 3 4 3.25 4 3.5V10.0938C3.40625 10.3125 3 10.875 3 11.5C3 12.3438 3.65625 13 4.5 13C5.3125 13 6 12.3438 6 11.5C6 10.875 5.5625 10.3125 5 10.0938Z" fill="#333333"/>
</svg>
