<svg width="14" height="11" viewBox="0 0 14 11" fill="none" xmlns="http://www.w3.org/2000/svg">
<path d="M12.6875 2.25H7.4375L5.6875 0.5H1.3125C0.574219 0.5 0 1.10156 0 1.8125V9.6875C0 10.4258 0.574219 11 1.3125 11H12.6875C13.3984 11 14 10.4258 14 9.6875V3.5625C14 2.85156 13.3984 2.25 12.6875 2.25ZM9.81641 6.84375C9.81641 7.08984 9.625 7.28125 9.37891 7.28125H7.62891V9.03125C7.62891 9.27734 7.4375 9.46875 7.19141 9.46875H6.75391C6.50781 9.46875 6.31641 9.27734 6.31641 9.03125V7.28125H4.56641C4.32031 7.28125 4.12891 7.08984 4.12891 6.84375V6.40625C4.12891 6.1875 4.32031 5.96875 4.56641 5.96875H6.31641V4.21875C6.31641 4 6.50781 3.78125 6.75391 3.78125H7.19141C7.4375 3.78125 7.62891 4 7.62891 4.21875V5.96875H9.37891C9.625 5.96875 9.81641 6.1875 9.81641 6.40625V6.84375Z" fill="#F9F9F9"/>
</svg>
