<svg width="42" height="37" viewBox="0 0 42 37" fill="none" xmlns="http://www.w3.org/2000/svg">
<path d="M15.0938 24.6562C16.9062 26.4688 19.8438 26.4688 21.6562 24.6562C23.7188 22.5938 25.7188 20.5938 27.7812 18.5312C27.9375 18.375 27.9375 18.1562 27.7812 18L27.25 17.4688C27.0938 17.3125 26.875 17.3125 26.7188 17.4688C24.6562 19.5312 22.6562 21.5312 20.5938 23.5938C19.375 24.8125 17.375 24.8125 16.1562 23.5938C14.9375 22.375 14.9375 20.375 16.1562 19.1562L23.1875 12.125C24 11.3125 25.3125 11.3125 26.125 12.125C26.9375 12.9375 26.9375 14.25 26.125 15.0625L20.2188 20.9688C19.8125 21.375 19.1562 21.375 18.75 20.9688C18.375 20.5938 18.375 19.9375 18.75 19.5312L23.7812 14.5312C23.9375 14.375 23.9375 14.1562 23.7812 14L23.25 13.4688C23.0938 13.3125 22.875 13.3125 22.7188 13.4688L17.7188 18.4688C16.7188 19.4688 16.7188 21.0625 17.7188 22.0312C18.6875 23.0312 20.2812 23.0312 21.25 22.0312L27.1875 16.125C28.5938 14.7188 28.5938 12.4688 27.1875 11.0625C25.7812 9.65625 23.5312 9.65625 22.125 11.0625L15.0938 18.0938C13.2812 19.9062 13.2812 22.8438 15.0938 24.6562Z" fill="#333333"/>
</svg>
