<svg width="14" height="10" viewBox="0 0 14 10" fill="none" xmlns="http://www.w3.org/2000/svg">
<path d="M4.75 9.40625L5.375 8.78125C5.5 8.625 5.5 8.40625 5.34375 8.25L2.84375 5.8125H13.625C13.8125 5.8125 14 5.65625 14 5.4375V4.5625C14 4.375 13.8125 4.1875 13.625 4.1875H2.84375L5.34375 1.78125C5.5 1.625 5.5 1.40625 5.375 1.25L4.75 0.625C4.59375 0.5 4.375 0.5 4.21875 0.625L0.09375 4.75C-0.03125 4.90625 -0.03125 5.125 0.09375 5.28125L4.21875 9.40625C4.375 9.53125 4.59375 9.53125 4.75 9.40625Z" fill="#333333"/>
</svg>
