<svg width="18" height="12" viewBox="0 0 18 12" fill="none" xmlns="http://www.w3.org/2000/svg">
<path d="M16.9688 1C16.7812 1 16.5938 1.0625 16.4062 1.1875L13 3.34375V1.5C13 0.6875 12.25 0 11.375 0H1.59375C0.71875 0 0 0.6875 0 1.5V10.5312C0 11.3438 0.71875 12 1.59375 12H11.375C12.25 12 13 11.3438 13 10.5312V8.6875L16.4062 10.8438C16.5938 10.9688 16.7812 11 16.9688 11C17.5 11 18 10.5938 18 10.0312V2C18 1.40625 17.5 1 16.9688 1ZM11.5 4.25V10.4688C11.4688 10.5 11.4375 10.5 11.375 10.5H1.59375C1.53125 10.5 1.5 10.5 1.5 10.4688V1.5625C1.5 1.53125 1.53125 1.5 1.59375 1.5H11.375C11.4375 1.5 11.4688 1.53125 11.5 1.5625V4.25ZM16.5 9.125L13 6.9375V5.09375L16.5 2.90625V9.125Z" fill="#DB0007"/>
</svg>
