<svg width="19" height="11" viewBox="0 0 19 11" fill="none" xmlns="http://www.w3.org/2000/svg">
<path d="M9.73047 10.7812C10.0039 11.0547 10.4688 11.0547 10.7422 10.7812L18.7812 2.74219C19.0547 2.46875 19.0547 2.00391 18.7812 1.73047L17.7969 0.746094C17.5234 0.472656 17.0859 0.472656 16.8125 0.746094L10.25 7.30859L8.42969 5.51562C8.15625 5.24219 7.71875 5.24219 7.44531 5.51562L6.46094 6.5C6.1875 6.77344 6.1875 7.23828 6.46094 7.51172L9.73047 10.7812Z" fill="#A9C23F"/>
<path d="M4.74414 10.2402C5.01758 10.5137 5.48242 10.5137 5.75586 10.2402L13.7949 2.20117C14.0684 1.92773 14.0684 1.46289 13.7949 1.18945L12.8105 0.205078C12.5371 -0.0683594 12.0996 -0.0683594 11.8262 0.205078L5.26367 6.76758L2.17383 3.70508C1.90039 3.43164 1.46289 3.43164 1.18945 3.70508L0.205078 4.68945C-0.0683594 4.96289 -0.0683594 5.42773 0.205078 5.70117L4.74414 10.2402Z" fill="#A9C23F"/>
</svg>
