<svg width="12" height="16" viewBox="0 0 12 16" fill="none" xmlns="http://www.w3.org/2000/svg">
<path d="M11.5312 3.0625L8.9375 0.4375C8.65625 0.15625 8.25 0 7.875 0H1.5C0.65625 0 0 0.6875 0 1.5V14.5C0 15.3438 0.65625 16 1.5 16H10.5C11.3125 16 12 15.3438 12 14.5V4.125C12 3.75 11.8125 3.34375 11.5312 3.0625ZM10.375 4H8V1.625L10.375 4ZM1.5 14.5V1.5H6.5V4.75C6.5 5.1875 6.8125 5.5 7.25 5.5H10.5V14.5H1.5ZM8.375 8C8.1875 8 8.03125 8.125 8 8.3125C7.34375 11.375 7.375 11.2812 7.34375 11.5312C7.34375 11.5 7.34375 11.4688 7.3125 11.4062C7.28125 11.25 7.34375 11.4062 6.59375 8.3125C6.53125 8.125 6.40625 8 6.21875 8H5.8125C5.625 8 5.46875 8.125 5.4375 8.3125C4.6875 11.4062 4.6875 11.3125 4.65625 11.5312C4.65625 11.5 4.65625 11.4688 4.65625 11.4062C4.625 11.25 4.21875 9.125 4.0625 8.3125C4 8.125 3.875 8 3.6875 8H3.15625C2.90625 8 2.71875 8.25 2.78125 8.46875C3.03125 9.5 3.625 11.9062 3.8125 12.7188C3.875 12.9062 4.03125 13 4.1875 13H4.96875C5.15625 13 5.3125 12.9062 5.34375 12.7188L5.90625 10.5C5.9375 10.3125 5.96875 10.125 6 9.9375L6.09375 10.5C6.09375 10.5 6.46875 12.0625 6.65625 12.7188C6.6875 12.875 6.84375 13 7 13H7.78125C7.9375 13 8.09375 12.9062 8.15625 12.7188C8.78125 10.1562 9.09375 9 9.21875 8.46875C9.28125 8.25 9.09375 8 8.84375 8H8.375Z" fill="#101F72"/>
</svg>
