<svg width="18" height="16" viewBox="0 0 18 16" fill="none" xmlns="http://www.w3.org/2000/svg">
<path d="M16.5 9H12V8H14C15.3125 8 16 6.40625 15.0312 5.46875L10.0312 0.46875C9.46875 -0.125 8.5 -0.125 7.9375 0.46875L2.9375 5.46875C1.96875 6.40625 2.65625 8 4 8H6V9H1.5C0.65625 9 0 9.6875 0 10.5V14.5C0 15.3438 0.65625 16 1.5 16H16.5C17.3125 16 18 15.3438 18 14.5V10.5C18 9.6875 17.3125 9 16.5 9ZM4 6.5L9 1.5L14 6.5H10.5V11.5H7.5V6.5H4ZM16.5 14.5H1.5V10.5H6V11.5C6 12.3438 6.65625 13 7.5 13H10.5C11.3125 13 12 12.3438 12 11.5V10.5H16.5V14.5ZM15.25 12.5C15.25 12.0938 14.9062 11.75 14.5 11.75C14.0625 11.75 13.75 12.0938 13.75 12.5C13.75 12.9375 14.0625 13.25 14.5 13.25C14.9062 13.25 15.25 12.9375 15.25 12.5Z" fill="#333333"/>
</svg>
