<svg width="16" height="14" viewBox="0 0 16 14" fill="none" xmlns="http://www.w3.org/2000/svg">
<path d="M1.5 10.5C0.65625 10.5 0 11.1875 0 12C0 12.8438 0.65625 13.5 1.5 13.5C2.3125 13.5 3 12.8438 3 12C3 11.1875 2.3125 10.5 1.5 10.5ZM1.5 5.5C0.65625 5.5 0 6.1875 0 7C0 7.84375 0.65625 8.5 1.5 8.5C2.3125 8.5 3 7.84375 3 7C3 6.1875 2.3125 5.5 1.5 5.5ZM1.5 0.5C0.65625 0.5 0 1.1875 0 2C0 2.84375 0.65625 3.5 1.5 3.5C2.3125 3.5 3 2.84375 3 2C3 1.1875 2.3125 0.5 1.5 0.5ZM15.5 1.25H5.5C5.21875 1.25 5 1.5 5 1.75V2.25C5 2.53125 5.21875 2.75 5.5 2.75H15.5C15.75 2.75 16 2.53125 16 2.25V1.75C16 1.5 15.75 1.25 15.5 1.25ZM15.5 6.25H5.5C5.21875 6.25 5 6.5 5 6.75V7.25C5 7.53125 5.21875 7.75 5.5 7.75H15.5C15.75 7.75 16 7.53125 16 7.25V6.75C16 6.5 15.75 6.25 15.5 6.25ZM15.5 11.25H5.5C5.21875 11.25 5 11.5 5 11.75V12.25C5 12.5312 5.21875 12.75 5.5 12.75H15.5C15.75 12.75 16 12.5312 16 12.25V11.75C16 11.5 15.75 11.25 15.5 11.25Z" fill="#333333"/>
</svg>
