<svg width="14" height="15" viewBox="0 0 14 15" fill="none" xmlns="http://www.w3.org/2000/svg">
<path d="M4.5 14.9688C5.3125 14.9688 6 14.3125 6 13.4688V2.46875C6 1.65625 5.3125 0.96875 4.5 0.96875H1.5C0.65625 0.96875 0 1.65625 0 2.46875V13.4688C0 14.3125 0.65625 14.9688 1.5 14.9688H4.5ZM14 13.4688V2.46875C14 1.65625 13.3125 0.96875 12.5 0.96875H9.5C8.65625 0.96875 8 1.65625 8 2.46875V13.4688C8 14.3125 8.65625 14.9688 9.5 14.9688H12.5C13.3125 14.9688 14 14.3125 14 13.4688Z" fill="#DB0007"/>
</svg>
