<svg width="16" height="17" viewBox="0 0 16 17" fill="none" xmlns="http://www.w3.org/2000/svg">
<path d="M2.09375 14.6562C3.90625 16.4688 6.84375 16.4688 8.65625 14.6562C10.7188 12.5938 12.7188 10.5938 14.7812 8.53125C14.9375 8.375 14.9375 8.15625 14.7812 8L14.25 7.46875C14.0938 7.3125 13.875 7.3125 13.7188 7.46875C11.6562 9.53125 9.65625 11.5312 7.59375 13.5938C6.375 14.8125 4.375 14.8125 3.15625 13.5938C1.9375 12.375 1.9375 10.375 3.15625 9.15625L10.1875 2.125C11 1.3125 12.3125 1.3125 13.125 2.125C13.9375 2.9375 13.9375 4.25 13.125 5.0625L7.21875 10.9688C6.8125 11.375 6.15625 11.375 5.75 10.9688C5.375 10.5938 5.375 9.9375 5.75 9.53125L10.7812 4.53125C10.9375 4.375 10.9375 4.15625 10.7812 4L10.25 3.46875C10.0938 3.3125 9.875 3.3125 9.71875 3.46875L4.71875 8.46875C3.71875 9.46875 3.71875 11.0625 4.71875 12.0312C5.6875 13.0312 7.28125 13.0312 8.25 12.0312L14.1875 6.125C15.5938 4.71875 15.5938 2.46875 14.1875 1.0625C12.7812 -0.34375 10.5312 -0.34375 9.125 1.0625L2.09375 8.09375C0.28125 9.90625 0.28125 12.8438 2.09375 14.6562Z" fill="#333333"/>
</svg>
