<svg width="11" height="15" viewBox="0 0 11 15" fill="none" xmlns="http://www.w3.org/2000/svg">
<path d="M8.14844 6.62891L7.79297 3.375H8.96875C9.32422 3.375 9.625 3.10156 9.625 2.71875V1.40625C9.625 1.05078 9.32422 0.75 8.96875 0.75H1.53125C1.14844 0.75 0.875 1.05078 0.875 1.40625V2.71875C0.875 3.10156 1.14844 3.375 1.53125 3.375H2.67969L2.32422 6.62891C1.01172 7.23047 0 8.35156 0 9.71875C0 10.1016 0.273438 10.375 0.65625 10.375H4.375V13.2461C4.375 13.2734 4.375 13.3008 4.375 13.3281L5.03125 14.6406C5.11328 14.8047 5.35938 14.8047 5.44141 14.6406L6.09766 13.3281C6.09766 13.3008 6.125 13.2734 6.125 13.2461V10.375H9.84375C10.1992 10.375 10.5 10.1016 10.5 9.71875C10.5 8.32422 9.46094 7.23047 8.14844 6.62891Z" fill="#333333"/>
</svg>
