<svg width="11" height="15" viewBox="0 0 11 15" fill="none" xmlns="http://www.w3.org/2000/svg">
<path opacity="0.6" d="M8.36719 5.86328L8.20312 4.6875H8.96875C9.32422 4.6875 9.625 4.41406 9.625 4.03125V1.40625C9.625 1.05078 9.32422 0.75 8.96875 0.75H1.53125C1.14844 0.75 0.875 1.05078 0.875 1.40625V4.03125C0.875 4.41406 1.14844 4.6875 1.53125 4.6875H2.26953L2.10547 5.86328C0.792969 6.76562 0 8.16016 0 9.71875C0 10.1016 0.273438 10.375 0.65625 10.375H4.59375V13.2188C4.59375 13.2461 4.59375 13.2734 4.59375 13.3008L5.03125 14.6133C5.08594 14.8047 5.38672 14.8047 5.44141 14.6133L5.87891 13.3008C5.87891 13.2734 5.90625 13.2461 5.90625 13.2188V10.375H9.84375C10.1992 10.375 10.5 10.1016 10.5 9.71875C10.5 8.16016 9.67969 6.76562 8.36719 5.86328ZM1.36719 9.0625C1.58594 8.02344 2.35156 7.14844 3.33594 6.68359L3.77344 3.375H2.1875V2.0625H8.3125V3.375H6.72656L7.16406 6.68359C8.12109 7.14844 8.88672 8.02344 9.10547 9.0625H1.36719Z" fill="#333333"/>
</svg>
