<svg width="16" height="16" viewBox="0 0 16 16" fill="none" xmlns="http://www.w3.org/2000/svg">
<path d="M15.7188 10.4688L11.5 8L15.7188 5.5625C15.9688 5.4375 16.0625 5.125 15.9062 4.875L14.9062 3.15625C14.7812 2.90625 14.4688 2.8125 14.2188 2.96875L10 5.40625V0.5C10 0.25 9.75 0 9.5 0H7.46875C7.21875 0 6.96875 0.25 6.96875 0.5V5.40625L2.75 2.96875C2.5 2.84375 2.1875 2.90625 2.0625 3.15625L1.0625 4.875C0.90625 5.125 1 5.4375 1.25 5.5625L5.46875 8L1.25 10.4688C1 10.5938 0.90625 10.9062 1.0625 11.1562L2.0625 12.875C2.1875 13.125 2.5 13.1875 2.75 13.0625L6.96875 10.625V15.5C6.96875 15.7812 7.21875 16 7.46875 16H9.5C9.75 16 10 15.7812 10 15.5V10.625L14.2188 13.0625C14.4688 13.1875 14.7812 13.125 14.9062 12.875L15.9062 11.1562C16.0625 10.9062 15.9688 10.5938 15.7188 10.4688Z" fill="#333333"/>
</svg>
