<svg width="12" height="16" viewBox="0 0 12 16" fill="none" xmlns="http://www.w3.org/2000/svg">
<path d="M11.5312 3.0625L8.9375 0.4375C8.65625 0.15625 8.25 0 7.875 0H1.5C0.65625 0 0 0.6875 0 1.5V14.5C0 15.3438 0.65625 16 1.5 16H10.5C11.3125 16 12 15.3438 12 14.5V4.125C12 3.75 11.8125 3.34375 11.5312 3.0625ZM10.375 4H8V1.625L10.375 4ZM1.5 14.5V1.5H6.5V4.75C6.5 5.1875 6.8125 5.5 7.25 5.5H10.5V14.5H1.5ZM3.75 12.625C3.75 12.8438 3.90625 13 4.125 13H4.875C5.09375 13 5.25 12.8438 5.25 12.625V11.1562C6.09375 11.1562 8.25 11.4062 8.25 9.09375C8.25 7.84375 7.40625 7 6.28125 7H4.125C3.90625 7 3.75 7.1875 3.75 7.375V12.625ZM5.25 9.90625V8.28125H6C6.21875 8.28125 6.40625 8.34375 6.53125 8.5C6.8125 8.78125 6.8125 9.375 6.53125 9.6875C6.40625 9.84375 6.21875 9.90625 5.96875 9.90625H5.25Z" fill="#FFC300"/>
</svg>
