<svg width="14" height="15" viewBox="0 0 14 15" fill="none" xmlns="http://www.w3.org/2000/svg">
<path d="M7 0.96875C3.25391 0.96875 0.191406 4.03125 0.21875 7.77734C0.21875 11.4961 3.25391 14.5312 7 14.5312C8.72266 14.5312 10.3359 13.875 11.5391 12.8086C11.6758 12.6719 11.6758 12.4531 11.5391 12.3164L10.4453 11.2227C10.3359 11.1133 10.1445 11.1133 10.0078 11.2227C9.16016 11.9609 8.12109 12.3438 7 12.3438C4.42969 12.3438 2.40625 10.293 2.40625 7.80469C2.37891 5.17969 4.51172 3.15625 7.02734 3.18359C8.17578 3.18359 9.26953 3.62109 10.1172 4.41406L8.96875 5.5625C8.55859 5.97266 8.85938 6.65625 9.43359 6.65625H13.125C13.4805 6.65625 13.7812 6.38281 13.7812 6V2.33594C13.7812 1.76172 13.0703 1.46094 12.6602 1.87109L11.6758 2.85547C10.4453 1.70703 8.80469 0.996094 7 0.96875Z" fill="#FFC300"/>
</svg>
