<svg width="18" height="17" viewBox="0 0 18 17" fill="none" xmlns="http://www.w3.org/2000/svg">
<path opacity="0.3" d="M17.5312 5.96875L12.0312 0.46875C11.0938 -0.5 9.5 0.1875 9.5 1.53125V4.03125C5.1875 4.15625 0 5 0 10.3438C0 12.625 1.1875 14.5312 3.03125 15.75C4.1875 16.5312 5.71875 15.4375 5.28125 14.0625C4.53125 11.625 4.90625 10.3438 9.5 10.0625V12.5C9.5 13.8438 11.0938 14.5312 12.0312 13.5625L17.5312 8.0625C18.125 7.5 18.125 6.53125 17.5312 5.96875ZM11 12.5V8.53125C5.84375 8.5625 2.3125 9.5625 3.875 14.5C2.75 13.75 1.5 12.4375 1.5 10.3438C1.5 5.875 6.5 5.53125 11 5.53125V1.5L16.5 7L11 12.5Z" fill="#333333"/>
</svg>
