<svg width="20" height="16" viewBox="0 0 20 16" fill="none" xmlns="http://www.w3.org/2000/svg">
<path d="M17.75 11.5C17.125 11.5 16.5938 11.75 16.1875 12.125L13.75 10.7188C13.9062 10.3438 14 9.9375 14 9.5C14 7.59375 12.4062 6 10.5 6C10.2188 6 9.96875 6.0625 9.71875 6.09375L8.71875 3.9375C9.1875 3.53125 9.5 2.9375 9.5 2.28125C9.5 1.03125 8.46875 0.03125 7.25 0.03125C6 0.03125 5 1.03125 5 2.28125C5 3.5 6 4.53125 7.25 4.53125C7.25 4.53125 7.28125 4.5 7.3125 4.5L8.375 6.75C7.53125 7.375 7 8.375 7 9.5C7 11.4375 8.5625 13 10.5 13C11.4375 13 12.3125 12.625 12.9375 12L15.5312 13.4688C15.5 13.5625 15.5 13.6562 15.5 13.75C15.5 15 16.5 16 17.75 16C18.9688 16 20 15 20 13.75C20 12.5312 18.9688 11.5 17.75 11.5ZM7.25 3C6.8125 3 6.5 2.6875 6.5 2.25C6.5 1.84375 6.8125 1.5 7.25 1.5C7.65625 1.5 8 1.84375 8 2.25C8 2.6875 7.65625 3 7.25 3ZM10.5 11.5C9.375 11.5 8.5 10.625 8.5 9.5C8.5 8.40625 9.375 7.5 10.5 7.5C11.5938 7.5 12.5 8.40625 12.5 9.5C12.5 10.625 11.5938 11.5 10.5 11.5ZM17.75 14.5C17.3125 14.5 17 14.1875 17 13.75C17 13.3438 17.3125 13 17.75 13C18.1562 13 18.5 13.3438 18.5 13.75C18.5 14.1875 18.1562 14.5 17.75 14.5ZM16.0312 6.34375L15.4375 5.5625L13.9375 6.6875L14.5312 7.46875L16.0312 6.34375ZM18 6C19.0938 6 20 5.125 20 4C20 2.90625 19.0938 2 18 2C16.875 2 16 2.90625 16 4C16 5.125 16.875 6 18 6ZM4.75 10H6.25V9H4.75V10ZM2 7.5C0.875 7.5 0 8.40625 0 9.5C0 10.625 0.875 11.5 2 11.5C3.09375 11.5 4 10.625 4 9.5C4 8.40625 3.09375 7.5 2 7.5Z" fill="#FFC300"/>
</svg>
