<svg width="12" height="16" viewBox="0 0 12 16" fill="none" xmlns="http://www.w3.org/2000/svg">
<path d="M11.5312 3.0625L8.9375 0.4375C8.65625 0.15625 8.25 0 7.875 0H1.5C0.65625 0 0 0.6875 0 1.5V14.5C0 15.3438 0.65625 16 1.5 16H10.5C11.3125 16 12 15.3438 12 14.5V4.125C12 3.75 11.8125 3.34375 11.5312 3.0625ZM10.375 4H8V1.625L10.375 4ZM1.5 14.5V1.5H6.5V4.75C6.5 5.1875 6.8125 5.5 7.25 5.5H10.5V14.5H1.5ZM8.125 7H7.21875C7.0625 7 6.9375 7.09375 6.875 7.21875C6.3125 8.25 6.1875 8.53125 6 9C5.5625 8.09375 5.78125 8.46875 5.09375 7.21875C5.03125 7.09375 4.90625 7 4.75 7H3.875C3.5625 7 3.40625 7.3125 3.53125 7.5625L4.96875 10L3.53125 12.4375C3.375 12.6875 3.5625 13 3.875 13H4.75C4.90625 13 5.03125 12.9375 5.09375 12.8125C5.78125 11.5625 5.8125 11.4062 6 11C6.4375 11.9688 6.15625 11.5 6.875 12.8125C6.9375 12.9375 7.0625 13 7.21875 13H8.125C8.40625 13 8.59375 12.6875 8.4375 12.4375L7 10C7 9.96875 7.9375 8.4375 8.4375 7.5625C8.59375 7.3125 8.40625 7 8.125 7Z" fill="#A9C23F"/>
</svg>
