<svg width="16" height="18" viewBox="0 0 16 18" fill="none" xmlns="http://www.w3.org/2000/svg">
<circle cx="8" cy="9" r="6" fill="white"/>
<path d="M8 1.25C3.71875 1.25 0.25 4.71875 0.25 9C0.25 13.2812 3.71875 16.75 8 16.75C12.2812 16.75 15.75 13.2812 15.75 9C15.75 4.71875 12.2812 1.25 8 1.25ZM11.7812 11.0625C11.9375 11.1875 11.9375 11.4375 11.7812 11.5938L10.5625 12.8125C10.4062 12.9688 10.1562 12.9688 10.0312 12.8125L8 10.75L5.9375 12.8125C5.8125 12.9688 5.5625 12.9688 5.40625 12.8125L4.1875 11.5625C4.03125 11.4375 4.03125 11.1875 4.1875 11.0312L6.25 9L4.1875 6.96875C4.03125 6.84375 4.03125 6.59375 4.1875 6.4375L5.4375 5.21875C5.5625 5.0625 5.8125 5.0625 5.96875 5.21875L8 7.25L10.0312 5.21875C10.1562 5.0625 10.4062 5.0625 10.5625 5.21875L11.7812 6.4375C11.9375 6.59375 11.9375 6.84375 11.7812 6.96875L9.75 9L11.7812 11.0625Z" fill="#DB0007"/>
</svg>
