<svg width="158" height="31" viewBox="0 0 158 31" fill="none" xmlns="http://www.w3.org/2000/svg">
<path d="M26.2897 2.21142C29.4414 2.21142 32 15.0991 32 31H36.5724C36.5724 13.8765 31.9655 0 26.2897 0C23.0552 0 20.1724 4.16897 18.2897 10.6963C16.4 4.16897 13.5172 0 10.2828 0C4.6069 0 0 13.8765 0 31H4.57241C4.57241 15.1058 7.13104 2.2181 10.2828 2.2181C13.4414 2.2181 16 14.117 16 28.7886H20.5724C20.5724 14.1103 23.131 2.21142 26.2897 2.21142Z" fill="#FFC300"/>
<path d="M38.8619 28.7819C39.4826 28.7819 39.9999 29.2562 39.9999 29.8842C39.9999 30.5189 39.4826 30.9933 38.8619 30.9933C38.2412 30.9933 37.7171 30.5189 37.7171 29.8842C37.7102 29.2629 38.2343 28.7819 38.8619 28.7819ZM38.8619 30.8396C39.3861 30.8396 39.793 30.4321 39.793 29.8909C39.793 29.3564 39.3861 28.9489 38.8619 28.9489C38.3309 28.9489 37.924 29.3564 37.924 29.8909C37.924 30.4254 38.3309 30.8396 38.8619 30.8396ZM38.4137 29.2429H38.9309C39.2481 29.2429 39.393 29.3631 39.393 29.6103C39.393 29.8441 39.2412 29.9444 39.0481 29.9644L39.4274 30.539H39.2068L38.8481 29.9844H38.6206V30.539H38.4137V29.2429ZM38.6206 29.8174H38.8343C39.0137 29.8174 39.1861 29.8107 39.1861 29.6036C39.1861 29.4299 39.0343 29.4032 38.8964 29.4032H38.6206V29.8174Z" fill="#FFC300"/>
<path fill-rule="evenodd" clip-rule="evenodd" d="M75.0987 10.1823C71.6509 10.1823 69.4819 12.718 69.4819 16.263C69.4819 19.6806 71.8777 21.9797 75.0987 21.9797C77.9488 21.9797 80.1775 20.2614 80.4872 17.2739H77.0819C76.9156 18.4567 76.2958 19.1861 75.0779 19.1861C73.5908 19.1861 72.9926 17.7045 72.9926 16.263C72.9926 14.7174 73.3023 12.9754 75.2638 12.9754C76.1508 12.9754 76.9565 13.6443 76.9785 14.5887H80.3831C80.1371 11.644 77.7629 10.1823 75.0987 10.1823ZM112.718 10.1819C111.198 10.1819 110.13 10.9087 109.491 12.0784H109.448V10.5049H106.043V21.6579H109.552V15.8668C109.552 14.2386 110.226 13.1884 111.451 13.1888C113.272 13.1888 113.207 14.7373 113.207 16.2622V21.6579H116.717V14.5007C116.717 12.8886 116.29 10.1819 112.718 10.1819ZM122.964 10.1819C121.745 10.1819 120.506 10.3978 119.556 10.9574C118.606 11.5357 117.945 12.4822 117.884 13.9432H121.167C121.333 12.9979 121.952 12.5479 122.922 12.5479C123.646 12.5479 124.615 12.867 124.615 13.7052C124.615 14.3953 124.284 14.6082 123.686 14.7382C121.25 15.2525 117.451 14.9744 117.451 18.6045C117.451 20.9053 119.061 21.9788 121.104 21.9788C122.386 21.9788 123.728 21.5923 124.636 20.6047C124.678 20.97 124.718 21.3125 124.842 21.6579H128.374C127.961 20.777 127.961 19.7445 127.961 18.7983V13.9199C127.961 10.7631 125.502 10.1819 122.963 10.1819H122.964ZM124.574 16.4353C124.657 18.7357 124.098 19.7225 122.426 19.7225C121.642 19.7225 120.961 19.3563 120.961 18.4563C120.961 17.5736 121.622 17.2295 122.406 17.0369C123.172 16.8222 124.079 16.7592 124.574 16.4357L124.574 16.4353ZM129.107 8.01905V21.6588H132.616V8.01863L129.107 8.01905ZM140.971 8.01905V11.7092H140.928C140.206 10.6992 139.194 10.1831 137.873 10.1831C134.837 10.1831 133.351 12.9335 133.351 15.8342C133.351 18.9715 134.776 21.9797 138.141 21.9797C139.38 21.9797 140.413 21.4213 141.094 20.3681H141.134V21.6584H144.481V8.01905H140.971ZM139.008 12.9763C140.536 12.9763 141.094 14.46 141.094 16.0708C141.094 17.4881 140.722 19.1861 139.008 19.1861C137.398 19.1861 136.862 17.4886 136.862 15.9633C136.862 14.546 137.398 12.9763 139.008 12.9763ZM145.213 8.01905V11.7084H146.856L148.496 8.01905H145.213ZM81.2212 8.01905V21.6588H86.8564C90.8387 21.6588 93.2798 19.2513 93.2798 14.783C93.2798 10.5595 90.8748 8.01905 86.8564 8.01905H81.2212ZM84.9615 11.1813H86.5383C88.578 11.1813 89.4922 12.6003 89.4922 14.7725C89.4922 17.1617 88.755 18.4978 86.5383 18.4978H84.9615V11.1813ZM54.7075 8L52 21.6584H55.8657L56.8621 16.2342C56.9686 15.6349 57.0594 15.0325 57.1341 14.4279H57.1729C57.2338 14.8055 57.3913 15.5531 57.5495 16.191L58.9541 21.6584H62.7962L64.1984 16.191C64.3582 15.5531 64.5149 14.8055 64.575 14.4279H64.6163C64.6503 14.7178 64.7581 15.5357 64.8875 16.2342L65.8838 21.6584H69.7487L67.0417 8H62.9448L61.3034 14.8601C61.166 15.3918 60.9966 16.2528 60.894 16.702H60.8555C60.7514 16.2528 60.5831 15.3918 60.4461 14.8601L58.8039 8L54.7075 8ZM99.651 10.1823C96.1911 10.1823 94.0117 12.7405 94.0117 16.0911C94.0117 19.4427 96.1903 22 99.6502 22C103.11 22 105.288 19.4431 105.288 16.0911C105.288 12.7405 103.111 10.1823 99.651 10.1823ZM99.6502 12.9754C101.167 12.9754 101.776 14.3059 101.776 16.0911C101.776 17.878 101.168 19.2069 99.6506 19.2069C98.1322 19.2069 97.5232 17.878 97.5232 16.0911C97.5232 14.3055 98.1318 12.9754 99.6502 12.9754ZM152.671 10.181C150.593 10.181 147.751 10.9113 147.751 13.5981C147.751 16.6068 150.573 16.6698 152.753 17.2506C153.364 17.4022 154.445 17.5728 154.444 18.433C154.444 19.3152 153.486 19.6158 152.813 19.6158C152.324 19.6158 151.902 19.4867 151.577 19.2284C151.23 18.9482 151.007 18.5388 151.007 17.9817H147.658C147.76 21.0992 150.328 21.9788 152.835 21.9788C155.219 21.9788 158 20.9899 158 18.0037C158 17.0796 157.451 15.446 155.311 14.9934C153.721 14.6302 151.307 14.4372 151.307 13.3839C151.307 12.6092 152.225 12.5449 152.794 12.5449C153.222 12.5449 153.563 12.6312 153.849 12.8243C154.134 13.0182 154.297 13.3183 154.297 13.7912H157.542C157.42 10.8905 154.994 10.181 152.671 10.181Z" fill="#F9F9F9"/>
</svg>
