<svg width="19" height="12" viewBox="0 0 19 12" fill="none" xmlns="http://www.w3.org/2000/svg">
<path d="M9.11108 2.5C8.76733 2.53125 8.42358 2.5625 8.11108 2.65625C8.26733 2.90625 8.32983 3.21875 8.36108 3.5C8.36108 4.46875 7.54858 5.25 6.61108 5.25C6.29858 5.25 5.98608 5.1875 5.76733 5.03125C5.67358 5.34375 5.61108 5.65625 5.61108 6C5.61108 7.9375 7.17358 9.5 9.11108 9.5C11.0486 9.5 12.6111 7.9375 12.6111 6C12.6111 4.09375 11.0486 2.53125 9.11108 2.53125V2.5ZM17.9861 5.5625C16.2986 2.25 12.9236 0 9.11108 0C5.26733 0 1.89233 2.25 0.204834 5.5625C0.142334 5.6875 0.111084 5.84375 0.111084 6C0.111084 6.1875 0.142334 6.34375 0.204834 6.46875C1.89233 9.78125 5.26733 12 9.11108 12C12.9236 12 16.2986 9.78125 17.9861 6.46875C18.0486 6.34375 18.0798 6.1875 18.0798 6.03125C18.0798 5.84375 18.0486 5.6875 17.9861 5.5625ZM9.11108 10.5C6.01733 10.5 3.17358 8.78125 1.67358 6C3.17358 3.21875 6.01733 1.5 9.11108 1.5C12.1736 1.5 15.0173 3.21875 16.5173 6C15.0173 8.78125 12.1736 10.5 9.11108 10.5Z" fill="#333333"/>
</svg>
